<svg width="14" height="13" viewBox="0 0 14 13" fill="none" xmlns="http://www.w3.org/2000/svg">
<path d="M9.66699 4.33398C10.7279 4.33398 11.7453 4.75541 12.4954 5.50556C13.2456 6.2557 13.667 7.27312 13.667 8.33398V13.0007H11.0003V8.33398C11.0003 7.98036 10.8598 7.64122 10.6098 7.39118C10.3598 7.14113 10.0206 7.00065 9.66699 7.00065C9.31337 7.00065 8.97423 7.14113 8.72418 7.39118C8.47414 7.64122 8.33366 7.98036 8.33366 8.33398V13.0007H5.66699V8.33398C5.66699 7.27312 6.08842 6.2557 6.83857 5.50556C7.58871 4.75541 8.60613 4.33398 9.66699 4.33398Z" fill="white"/>
<path d="M2.99967 5H0.333008V13H2.99967V5Z" fill="white"/>
<path d="M1.66634 3.00065C2.40272 3.00065 2.99967 2.4037 2.99967 1.66732C2.99967 0.930938 2.40272 0.333984 1.66634 0.333984C0.929961 0.333984 0.333008 0.930938 0.333008 1.66732C0.333008 2.4037 0.929961 3.00065 1.66634 3.00065Z" fill="white"/>
</svg>
