<svg width="16" height="13" viewBox="0 0 16 13" fill="none" xmlns="http://www.w3.org/2000/svg">
<path d="M15.3332 1.00084C14.6948 1.45116 13.9879 1.79558 13.2398 2.02084C12.8383 1.55918 12.3047 1.23197 11.7112 1.08346C11.1177 0.934951 10.4928 0.972308 9.92122 1.19048C9.34962 1.40865 8.8588 1.79711 8.51516 2.30332C8.17152 2.80953 7.99164 3.40907 7.99984 4.02084V4.68751C6.82826 4.71789 5.66735 4.45805 4.62051 3.93114C3.57367 3.40423 2.67338 2.6266 1.99984 1.66751C1.99984 1.66751 -0.666829 7.66751 5.33317 10.3342C3.96019 11.2662 2.32461 11.7335 0.666504 11.6675C6.6665 15.0008 13.9998 11.6675 13.9998 4.00084C13.9992 3.81515 13.9814 3.62991 13.9465 3.44751C14.6269 2.77651 15.1071 1.92932 15.3332 1.00084Z" fill="white"/>
</svg>
